/* XPM */
static char * eject_clicked_xpm[] = {
"12 9 61 1",
" 	c None",
".	c #454E6D",
"+	c #444D6A",
"@	c #4B597E",
"#	c #54648D",
"$	c #55648D",
"%	c #4C5677",
"&	c #A7B6DB",
"*	c #ACBADD",
"=	c #A8BAE1",
"-	c #A1B7E5",
";	c #9AB5E9",
">	c #A1B8E5",
",	c #B2C2E5",
"'	c #BEC9E4",
")	c #AFBDDE",
"!	c #4F5776",
"~	c #B5BCD3",
"{	c #9FAED5",
"]	c #99ADD9",
"^	c #94ACDE",
"/	c #8FABE3",
"(	c #A0C6FF",
"_	c #B5BDD3",
":	c #91A5D4",
"<	c #8DA5D9",
"[	c #89A5DF",
"}	c #96A5CF",
"|	c #515A7B",
"1	c #B4BDD3",
"2	c #8D9FCE",
"3	c #839FDA",
"4	c #899DCE",
"5	c #8D9CC8",
"6	c #59648A",
"7	c #BDC2D7",
"8	c #8BA2D5",
"9	c #7D99D7",
"0	c #7B9BDD",
"a	c #7F97D0",
"b	c #8493C3",
"c	c #586288",
"d	c #C4CADB",
"e	c #90A0CE",
"f	c #7894D2",
"g	c #7A8DC3",
"h	c #7C8BBC",
"i	c #556086",
"j	c #C0CAE1",
"k	c #859BCF",
"l	c #849ED7",
"m	c #86A0D9",
"n	c #8197CD",
"o	c #8091C5",
"p	c #7D8ABB",
"q	c #B3C4E4",
"r	c #A4BAE4",
"s	c #9AB2DF",
"t	c #9AADD5",
"u	c #9FAECE",
"v	c #A0AAC6",
" .++@#$%%%  ",
" &*=-;>,')! ",
"~{]^/(/^]{{!",
"_:<[((([<:}|",
"123(((((3456",
"789099909abc",
"def(((((fghi",
" jkllllmnop ",
"  jqrrstuv  "};
