/* XPM */
static char * next_clicked_xpm[] = {
"12 9 64 1",
" 	c None",
".	c #454E6D",
"+	c #48567A",
"@	c #50628E",
"#	c #54648D",
"$	c #55648D",
"%	c #4C5677",
"&	c #A0B4DE",
"*	c #9EB5E4",
"=	c #9AB5E9",
"-	c #A1B8E5",
";	c #B2C2E5",
">	c #BEC9E4",
",	c #AFBDDE",
"'	c #4F5776",
")	c #B5BCD3",
"!	c #94ACDE",
"~	c #8FABE3",
"{	c #A0C6FF",
"]	c #8AAAE7",
"^	c #99ADD9",
"/	c #9FAED5",
"(	c #B5BDD3",
"_	c #89A5DF",
":	c #8DA5D9",
"<	c #91A5D4",
"[	c #96A5CF",
"}	c #515A7B",
"|	c #B4BDD3",
"1	c #86A1DB",
"2	c #839FDA",
"3	c #899DCE",
"4	c #8D9CC8",
"5	c #59648A",
"6	c #BDC2D7",
"7	c #87A2DB",
"8	c #7D99D7",
"9	c #7F97D0",
"0	c #8195C9",
"a	c #8493C3",
"b	c #586288",
"c	c #C4CADB",
"d	c #8CA1D4",
"e	c #7894D2",
"f	c #7696D9",
"g	c #7990CA",
"h	c #7A8DC3",
"i	c #7C8BBC",
"j	c #556086",
"k	c #C0CAE1",
"l	c #859BCF",
"m	c #849ED7",
"n	c #889CD0",
"o	c #8E9DCC",
"p	c #8693C0",
"q	c #838FBE",
"r	c #7D8ABB",
"s	c #BDC8E0",
"t	c #ACBEDF",
"u	c #B5C1DB",
"v	c #A8B6D5",
"w	c #A7B0CA",
"x	c #A5AFC9",
"y	c #A0AAC6",
" .++@#$%%%  ",
" &*===-;>,' ",
")!~{]{~!^//'",
"(__{_{{_:<[}",
"|12{2{{{2345",
"678{8{{890ab",
"cde{f{eghiij",
" klmmmnopqr ",
"  kstuvwxy  "};
