/* XPM */
static char * play_pause_clicked_xpm[] = {
"12 9 59 1",
" 	c None",
".	c #49577D",
"+	c #48567A",
"@	c #47506F",
"#	c #54648D",
"$	c #55648D",
"%	c #536794",
"&	c #4F5E85",
"*	c #9AB2E2",
"=	c #98B3E8",
"-	c #A1B7E5",
";	c #9AB6E9",
">	c #A2BBEB",
",	c #A4BDED",
"'	c #525F85",
")	c #A5B7DC",
"!	c #8FABE3",
"~	c #A0C6FF",
"{	c #8AAAE7",
"]	c #94ACDE",
"^	c #4F5776",
"/	c #9EB5E1",
"(	c #89A5DF",
"_	c #80A5E9",
":	c #85A5E4",
"<	c #515A7B",
"[	c #9DB5E1",
"}	c #86A1DB",
"|	c #7CA1E6",
"1	c #839FDA",
"2	c #59648A",
"3	c #A3B8E4",
"4	c #87A2DB",
"5	c #789DE4",
"6	c #7B9BDD",
"7	c #7D99D7",
"8	c #586288",
"9	c #B1C2E2",
"0	c #88A2DA",
"a	c #7894D2",
"b	c #7696D9",
"c	c #7990CA",
"d	c #556086",
"e	c #B6C5E5",
"f	c #829CD6",
"g	c #889CD0",
"h	c #849ED7",
"i	c #86A0D9",
"j	c #7E99D5",
"k	c #7E94CC",
"l	c #7B8DC2",
"m	c #C0CAE1",
"n	c #BDC8E0",
"o	c #BEC5D7",
"p	c #B5C1DB",
"q	c #A8B6D5",
"r	c #9AADD5",
"s	c #9FAECE",
"t	c #9AA9CC",
" .++@#$%&&  ",
" *=---;>,-' ",
")!~!{{~{~!]^",
"/(~~_:~(~((<",
"[}~~~|~1~112",
"34~~56~7~778",
"90~abb~b~acd",
" efggghijkl ",
"  mnopqrst  "};
