/* XPM */
static char * prev_clicked_xpm[] = {
"12 9 62 1",
" 	c None",
".	c #444D6A",
"+	c #4B597E",
"@	c #54648D",
"#	c #586C9B",
"$	c #4F5E85",
"%	c #4C5677",
"&	c #ACBADD",
"*	c #A8BAE1",
"=	c #A1B7E5",
"-	c #9AB5E9",
";	c #9AB6E9",
">	c #A2BBEB",
",	c #ACC1E9",
"'	c #4F5776",
")	c #B5BCD3",
"!	c #9FAED5",
"~	c #99ADD9",
"{	c #94ACDE",
"]	c #8FABE3",
"^	c #A0C6FF",
"/	c #8AAAE7",
"(	c #B5BDD3",
"_	c #91A5D4",
":	c #8DA5D9",
"<	c #89A5DF",
"[	c #96A5CF",
"}	c #515A7B",
"|	c #B4BDD3",
"1	c #8D9FCE",
"2	c #839FDA",
"3	c #8D9CC8",
"4	c #59648A",
"5	c #BDC2D7",
"6	c #8FA1CF",
"7	c #7F97D0",
"8	c #7D99D7",
"9	c #8493C3",
"0	c #586288",
"a	c #C4CADB",
"b	c #95A0C8",
"c	c #7A8DC3",
"d	c #7990CA",
"e	c #7894D2",
"f	c #7696D9",
"g	c #7C8BBC",
"h	c #556086",
"i	c #CACFDE",
"j	c #8C98C2",
"k	c #8B9BCA",
"l	c #889CD0",
"m	c #849ED7",
"n	c #86A0D9",
"o	c #8197CD",
"p	c #8091C5",
"q	c #7D8ABB",
"r	c #C7CDDD",
"s	c #B5C1DB",
"t	c #A1B4DA",
"u	c #A0AECF",
"v	c #9FAECE",
"w	c #A0AAC6",
"  ..+@#$$%  ",
" &&*=-;>,*' ",
")!~{]^/^]{!'",
"(_:<^^<^<<[}",
"|12^^^2^2234",
"5678^^8^8890",
"abcde^f^edgh",
" ijklmmnopq ",
"  irsstuvw  "};
