/* XPM */
static char * prev_xpm[] = {
"12 9 44 1",
" 	c None",
".	c #A0AAC6",
"+	c #A5AFC9",
"@	c #A7B0CA",
"#	c #AFB8D0",
"$	c #BEC5D7",
"%	c #C7CDDD",
"&	c #CACFDE",
"*	c #7D8ABB",
"=	c #838FBE",
"-	c #8693C0",
";	c #929DC6",
">	c #8F9AC4",
",	c #8C98C2",
"'	c #C4CADB",
")	c #556086",
"!	c #7C8BBC",
"~	c #2C4866",
"{	c #95A0C8",
"]	c #586288",
"^	c #8493C3",
"/	c #93A1CA",
"(	c #BDC2D7",
"_	c #59648A",
":	c #8D9CC8",
"<	c #919FC9",
"[	c #B4BDD3",
"}	c #515A7B",
"|	c #96A5CF",
"1	c #B5BDD3",
"2	c #4F5776",
"3	c #9FAED5",
"4	c #B5BCD3",
"5	c #4C5677",
"6	c #AFBDDE",
"7	c #BEC9E4",
"8	c #BBC6E2",
"9	c #B0BEDE",
"0	c #ACBADD",
"a	c #A7B6DB",
"b	c #525C80",
"c	c #515C80",
"d	c #47506F",
"e	c #444D6A",
"  .+@#$$%&  ",
" *=-;>>>>,' ",
")!!!!~!~!!{'",
"]^^^~~^~^^/(",
"_::~~~:~::<[",
"}|||~~|~|||1",
"23333~3~3334",
" 567896660a ",
"  555bcdee  "};
