/* XPM */
static char * stop_clicked_xpm[] = {
"12 9 56 1",
" 	c None",
".	c #454E6D",
"+	c #48567A",
"@	c #4D608A",
"#	c #546C9F",
"$	c #5B74AA",
"%	c #5C74AA",
"&	c #536794",
"*	c #4F5E85",
"=	c #4C5677",
"-	c #A0B4DE",
";	c #9EB5E4",
">	c #9AB5E9",
",	c #9AB6E9",
"'	c #A2BBEB",
")	c #ACC1E9",
"!	c #A8BAE1",
"~	c #4F5776",
"{	c #B5BCD3",
"]	c #94ACDE",
"^	c #8FABE3",
"/	c #A0C6FF",
"(	c #9FAED5",
"_	c #B5BDD3",
":	c #89A5DF",
"<	c #96A5CF",
"[	c #515A7B",
"}	c #B4BDD3",
"|	c #86A1DB",
"1	c #839FDA",
"2	c #8D9CC8",
"3	c #59648A",
"4	c #BDC2D7",
"5	c #87A2DB",
"6	c #7D99D7",
"7	c #8493C3",
"8	c #586288",
"9	c #C4CADB",
"0	c #8CA1D4",
"a	c #7894D2",
"b	c #7990CA",
"c	c #7C8BBC",
"d	c #556086",
"e	c #C0CAE1",
"f	c #859BCF",
"g	c #849ED7",
"h	c #86A0D9",
"i	c #8197CD",
"j	c #8091C5",
"k	c #7D8ABB",
"l	c #B3C4E4",
"m	c #A4BAE4",
"n	c #9AB2DF",
"o	c #9AADD5",
"p	c #9FAECE",
"q	c #A0AAC6",
" .+@#$%&*=  ",
" -;>>>,')!~ ",
"{]^/////^](~",
"_:://///::<[",
"}|1/////1123",
"456/////6678",
"90a/////abcd",
" efgggghijk ",
"  elmmnopq  "};
