/* XPM */
static char * bg_meter_host_xpm[] = {
"68 9 13 1",
" 	c None",
".	c #EEF2F8",
"+	c #E7EBF3",
"@	c #E2E4ED",
"#	c #E2E5ED",
"$	c #E2E6EE",
"%	c #DAE0E8",
"&	c #DADFE8",
"*	c #D4D8E2",
"=	c #D3D8E2",
"-	c #CDD1DC",
";	c #CCD0DC",
">	c #C5CAD6",
"....................................................................",
"....................................................................",
"++++++++++++++++++++++++++++++++++++++++++++++++++++++++++++++++++++",
"@@@@@@@@@#@@@@@@@#@@@@@@@#@@@@@@@@@#@@@@@@@#@@@@@@@#@@@@@@@#@@@@@@$$",
"%%%%%&&&&&%%%&&&&&%%%&&&&&%%%%%&&&&&%%%&&&&&%%%&&&&&%%%%&&&&%%%%&&&&",
"*****=====***=====***=====*****=====***=====***=====****====****====",
"------------------------------------------------------------------;;",
">>>>>>>>>>>>>>>>>>>>>>>>>>>>>>>>>>>>>>>>>>>>>>>>>>>>>>>>>>>>>>>>>>>>",
">>>>>>>>>>>>>>>>>>>>>>>>>>>>>>>>>>>>>>>>>>>>>>>>>>>>>>>>>>>>>>>>>>>>"};
