/* XPM */
static char * frame_bottom_2_xpm[] = {
"80 12 22 1",
" 	c None",
".	c #0B113E",
"+	c #F0F3F9",
"@	c #CFD4DE",
"#	c #9FA3AE",
"$	c #D2D7E1",
"%	c #C3C7D4",
"&	c #CED2DD",
"*	c #C7CCD7",
"=	c #CCD1DC",
"-	c #A4B3DA",
";	c #566391",
">	c #CCD1DB",
",	c #CBD0DB",
"'	c #8393C1",
")	c #D8DCE5",
"!	c #C9CDD9",
"~	c #D3E5FF",
"{	c #E4E7EF",
"]	c #C6CBD7",
"^	c #EAEDF4",
"/	c #C5C9D6",
"............................................................................+@#.",
".++++++++++++++++++++++++++++++++++++++++++++++++++++++++++++++++++++++++++++@#.",
".+$$$$$$$$$$$$$$$$$$$$$$$$$$$$$$$$$$$$$$$$$$$$$$$$$$$$$$$$$$$$$$$$$$$$$$$$$$$@#.",
".$####################################%%%%%%%%%%%%%%%%%%%%%%%%%%%%%%%%%%%%%.%&#.",
" .....................................+%*************************************=#.",
"        .-;;;;;;;;;;;;;;;;;;;;;;;;;;;;.+%$$$$$$$$$>>>>>>>>>>>>>>>>>>>>>>>.>.>,#.",
"         .-''''''''''''''''''''''''''''............+%))))))))))))))))))))))))!#.",
"          .~---------------------------------------.+%{{{{{{{{{{{{{{{{{.{.{.{]#.",
"           .-;;;;;;;;;;;;;;;;;;;;;;;;;;;;;;;;;;;;;;;.+%^^^^^^^^^^^^^^^^^^^^^^/#.",
"            ..........................................+%%%%%%%%%%%%%%%%%%%%%%%#.",
"                                                      .+######################. ",
"                                                       .......................  "};
