/* XPM */
static char * frame_bottom_xpm[] = {
"80 5 93 2",
"  	c None",
". 	c #0A0F38",
"+ 	c #8896B5",
"@ 	c #6D7AA1",
"# 	c #505C86",
"$ 	c #0C123A",
"% 	c #0D123B",
"& 	c #090F37",
"* 	c #F0F3F9",
"= 	c #D2D7E1",
"- 	c #9FA3AE",
"; 	c #8694B5",
"> 	c #7A8ABA",
", 	c #8996B6",
"' 	c #8A97B7",
") 	c #8B98B8",
"! 	c #8C99B8",
"~ 	c #8D9BB9",
"{ 	c #8F9CBB",
"] 	c #919EBD",
"^ 	c #93A0BD",
"/ 	c #94A1BE",
"( 	c #95A2C0",
"_ 	c #97A5C1",
": 	c #99A6C2",
"< 	c #9BA7C3",
"[ 	c #9DA9C4",
"} 	c #9EAAC5",
"| 	c #9FABC6",
"1 	c #A1ADC8",
"2 	c #A5B0C9",
"3 	c #AAB5CD",
"4 	c #B0BBD2",
"5 	c #BAC5D8",
"6 	c #C3CDDD",
"7 	c #C8D2E2",
"8 	c #CBD4E4",
"9 	c #CCD6E6",
"0 	c #CFD8E6",
"a 	c #BFC5D2",
"b 	c #AEB0B9",
"c 	c #D5D8DE",
"d 	c #E4E7ED",
"e 	c #ECEFF5",
"f 	c #8695B5",
"g 	c #6E7BA1",
"h 	c #6F7BA2",
"i 	c #707CA3",
"j 	c #717DA3",
"k 	c #727EA4",
"l 	c #7481A6",
"m 	c #7682A7",
"n 	c #7683A8",
"o 	c #7884A8",
"p 	c #7985A9",
"q 	c #7B87AB",
"r 	c #7D88AC",
"s 	c #7E8AAD",
"t 	c #808BAE",
"u 	c #818BAF",
"v 	c #828DAF",
"w 	c #838EB0",
"x 	c #858FB2",
"y 	c #8690B3",
"z 	c #8791B4",
"A 	c #8994B8",
"B 	c #8C98BC",
"C 	c #8F9CC1",
"D 	c #94A1C6",
"E 	c #96A4C7",
"F 	c #9CAAC9",
"G 	c #9DA8C4",
"H 	c #818494",
"I 	c #B2B6C1",
"J 	c #C5C9D3",
"K 	c #CED3DD",
"L 	c #637099",
"M 	c #505C85",
"N 	c #505B85",
"O 	c #515D86",
"P 	c #525E87",
"Q 	c #4D5982",
"R 	c #3F4A73",
"S 	c #575A68",
"T 	c #81848F",
"U 	c #9295A0",
"V 	c #9DA1AC",
"W 	c #0C113A",
"X 	c #0E143C",
"Y 	c #0F143D",
"Z 	c #0F153D",
"` 	c #0E133C",
" .	c #0D133B",
". + @ # $ $ $ $ % . . . . & & & & & & & & & & & & & & & & & & & & & & & & & & & & & & & & & & & & & & & & & & & & & & & & & & & & & & & & & & & . . . . * = - . ",
"& ; @ > + , ' ) ! ~ { ] ^ / ( _ : < [ } | 1 2 3 4 5 6 7 8 9 0 a & b c d e * * * * * * * * * * * * * * * * * * * * * * * * * * * * * * * * * * * * * * * * = - . ",
"& f @ @ g h i j k l m n o p q r s t u v w x y z A B C D E F G & H I J K = = = = = = = = = = = = = = = = = = = = = = = = = = = = = = = = = = = = = = = = = = - . ",
"& L # # M M M M M # M N N M # O O O O O O O O O O O O P Q R & S T U V - - - - - - - - - - - - - - - - - - - - - - - - - - - - - - - - - - - - - - - - - - - - . ",
"$ $ $ $ $ $ $ $ % % % % % $ $ $ $ $ W $ $ $ W $ W W W X X X Y Y Y Y Y Z Z % % % % % % % % % % % % % % % % % % % % % % % % % % % % % % % % % % `  . .% $ $ $ $ $ "};
