/* XPM */
static char * frame_top_2_xpm[] = {
"80 16 68 1",
" 	c None",
".	c #0B113E",
"+	c #D3E5FF",
"@	c #566391",
"#	c #B5C4E6",
"$	c #9CABD3",
"%	c #9FA3AE",
"&	c #E8ECF4",
"*	c #E8ECF3",
"=	c #EFF2F8",
"-	c #E8EBF2",
";	c #97A6D0",
">	c #E6EAF2",
",	c #ECEFF5",
"'	c #91A0CC",
")	c #E3E6EE",
"!	c #E4E7EF",
"~	c #8E9DC9",
"{	c #8D9CC8",
"]	c #E0E3EC",
"^	c #E1E4EC",
"/	c #A9B8DD",
"(	c #CFE1FC",
"_	c #8797C5",
":	c #DCE1EA",
"<	c #E0E4EC",
"[	c #9CAAD3",
"}	c #C5D7F2",
"|	c #8291C0",
"1	c #8392C1",
"2	c #D9DEE7",
"3	c #D8DDE6",
"4	c #DDE0E9",
"5	c #FDFEFE",
"6	c #808FBF",
"7	c #B7C8E4",
"8	c #7D8CBD",
"9	c #7E8DBD",
"0	c #D5DAE4",
"a	c #D9DDE6",
"b	c #A8B9D5",
"c	c #7887BA",
"d	c #7987BA",
"e	c #D2D7E1",
"f	c #D1D6E0",
"g	c #D5D9E3",
"h	c #96A4C4",
"i	c #7181B3",
"j	c #6B7AAC",
"k	c #7383B6",
"l	c #CFD3DE",
"m	c #CED2DD",
"n	c #D1D5E0",
"o	c #8694B5",
"p	c #707EAE",
"q	c #566390",
"r	c #CBCFDA",
"s	c #CED1DD",
"t	c #6F7DA9",
"u	c #55628F",
"v	c #C7CCD7",
"w	c #CACEDA",
"x	c #8997B8",
"y	c #6D7AA1",
"z	c #505C86",
"A	c #C3C7D4",
"B	c #91A0C0",
"C	c #6C79A0",
"   .......................                                                      ",
"  .+++++++++++++++++++++@.                                                      ",
" .+#####################@.........................                              ",
".+$$$$$$$$$$$$$$$$$$$$$@.%&&&&*&&&&&&&&&&&&&&&&==-.                             ",
".+;;;;;;;;;;;;;;;;;;;;@.%>>>.>.>>>>>>>>>>>>>>>>,,,-...................          ",
".+'''''''''''''''''''@.%)))))))!!!!!!!!!!!!!!!!-----.~++++++++++++++++.         ",
".+{{{{{{{{{{{{{{{{{{@.%]]].].].^^^^^^^^^^^^^^^^!!!!!-.~////////////////.        ",
".(_________________@.%:::::::::::::::::::::::::<<<<<<-..........~[[[[[[/.       ",
".}|111111111111111@.%222.2.2.2.333333333333333344444445555555555.6~~~~~~[.      ",
".7899999999999999@.%000000000000000000000000000aaaaaaaaaaaaaaaaaa.@666666~.     ",
".bcddddddddddddd@.%eee.e.e.e.e.ffffffffffffffffgggggggggggggggggga.@@@@@@@@.    ",
".hijkkkkkkkkkkk@.%lllllllllllllmmmmmmmmmmmmmmmmnnnnnnnnnnnnnnnnnnna.............",
".opq@@@@@@@@@@@.%rrr.r.r.r.r.r.rrrrrrrrrrrrrrrrssssssssssssssssssss555555555555.",
".otu...........%vvvvvvvvvvvvvvvvvvvvvvvvvvvvvvvwwwwwwwwwwwwwwwwwwwwwwwwwwwwwww5.",
".xyz.A%%%%%%%%%%%%%%%%%%%%%%%%%%%%%%%%%%%%%%%%%%%%%%%%%%%%%%%%%%%%%%%%%%%%%%%w5.",
".BCz........................................................................%w5."};
