/* XPM */
static char * frame_top_xpm[] = {
"80 5 149 2",
"  	c None",
". 	c #0A0F38",
"+ 	c #0C123A",
"@ 	c #0E143C",
"# 	c #0D123B",
"$ 	c #090F37",
"% 	c #0B1039",
"& 	c #8694B5",
"* 	c #8795B6",
"= 	c #8795B5",
"- 	c #8896B5",
"; 	c #8996B6",
"> 	c #8A97B7",
", 	c #8B98B8",
"' 	c #8C99B8",
") 	c #8D9BB9",
"! 	c #8F9CBB",
"~ 	c #919EBD",
"{ 	c #93A0BD",
"] 	c #94A1BE",
"^ 	c #95A2C0",
"/ 	c #97A5C1",
"( 	c #99A6C2",
"_ 	c #9BA7C3",
": 	c #9CA8C4",
"< 	c #9DA9C5",
"[ 	c #9EAAC6",
"} 	c #9FABC6",
"| 	c #A1ACC8",
"1 	c #A2ADC8",
"2 	c #A3AEC9",
"3 	c #A4AFCA",
"4 	c #A5B0CA",
"5 	c #A6B1CB",
"6 	c #A7B2CC",
"7 	c #A8B3CC",
"8 	c #A9B4CD",
"9 	c #AAB5CE",
"0 	c #ABB7CF",
"a 	c #ACB8D0",
"b 	c #ADB9D0",
"c 	c #AFBAD1",
"d 	c #B0BBD1",
"e 	c #B1BCD2",
"f 	c #B2BDD3",
"g 	c #B3BED4",
"h 	c #B4C0D4",
"i 	c #B5C0D5",
"j 	c #B6C1D6",
"k 	c #B7C2D7",
"l 	c #B8C3D8",
"m 	c #B9C4D8",
"n 	c #BAC5D9",
"o 	c #BBC6DA",
"p 	c #BDC7DB",
"q 	c #BEC8DB",
"r 	c #BFC9DC",
"s 	c #C0CADD",
"t 	c #C1CBDD",
"u 	c #C3CCDE",
"v 	c #C4CDDF",
"w 	c #C5CEE0",
"x 	c #C6CFE1",
"y 	c #C7D1E1",
"z 	c #CAD3E3",
"A 	c #CAD4E5",
"B 	c #CBD6E6",
"C 	c #E1E7EF",
"D 	c #9B9EAA",
"E 	c #CED1D8",
"F 	c #E9ECF2",
"G 	c #F0F3F9",
"H 	c #D2D7E1",
"I 	c #8695B5",
"J 	c #6D7AA1",
"K 	c #6E7BA1",
"L 	c #6F7BA2",
"M 	c #707CA3",
"N 	c #717DA3",
"O 	c #727EA4",
"P 	c #7481A6",
"Q 	c #7682A7",
"R 	c #7683A8",
"S 	c #7884A8",
"T 	c #7985A9",
"U 	c #7B87AB",
"V 	c #7D88AC",
"W 	c #7E8AAD",
"X 	c #808BAE",
"Y 	c #818BAF",
"Z 	c #828DAF",
"` 	c #838EB0",
" .	c #848FB1",
"..	c #8590B2",
"+.	c #8790B3",
"@.	c #8791B3",
"#.	c #8892B4",
"$.	c #8994B5",
"%.	c #8A95B6",
"&.	c #8B96B6",
"*.	c #8C97B7",
"=.	c #8D98B8",
"-.	c #8F99B8",
";.	c #8F9AB9",
">.	c #8F9BBA",
",.	c #909CBB",
"'.	c #8F9DBC",
").	c #909DBC",
"!.	c #909DBD",
"~.	c #909DBE",
"{.	c #909EBF",
"].	c #909EC0",
"^.	c #909EC1",
"/.	c #919EC2",
"(.	c #919EC3",
"_.	c #919EC4",
":.	c #919FC5",
"<.	c #94A1C6",
"[.	c #96A4C7",
"}.	c #9CAAC9",
"|.	c #9DA8C4",
"1.	c #AEB1B7",
"2.	c #C8CCD5",
"3.	c #9FA3AE",
"4.	c #505C86",
"5.	c #505C85",
"6.	c #505B85",
"7.	c #515D86",
"8.	c #515D87",
"9.	c #525E87",
"0.	c #525E88",
"a.	c #535E88",
"b.	c #535F88",
"c.	c #535F89",
"d.	c #545F89",
"e.	c #546089",
"f.	c #4E5A84",
"g.	c #414C75",
"h.	c #666971",
"i.	c #868992",
"j.	c #9396A1",
"k.	c #999DA8",
"l.	c #C6C9CE",
"m.	c #6D79A1",
"n.	c #0C113A",
"o.	c #0D133B",
"p.	c #0E133C",
"q.	c #0F143D",
"r.	c #0F153D",
". + @ # + + + + # . . . . $ $ $ $ $ $ $ $ $ $ $ $ $ $ $ $ $ $ $ $ $ $ $ $ $ $ $ $ $ $ $ $ $ . $ $ $ $ $ $ $ $ $ $ $ $ $ $ $ $ $ $ $ $ $ $ $ $ % . . . . . . . . ",
"$ & * = - ; > , ' ) ! ~ { ] ^ / ( _ : < [ } | 1 2 3 4 5 6 7 8 9 0 a b c d e f g h i j k l m n o p q r s t u v w x y z A B C $ D E F G G G G G G G G G G G G H . ",
"$ I J J K L M N O P Q R S T U V W X Y Z `  ...+.@.#.$.%.&.*.=.-.;.>.,.'.).!.~.{.{.].^.^./.(._._._._._._._._.:.:.:.<.[.}.|.$ 1.2.H H H H H H H H H H H H H H 3.. ",
"$ & J 4.5.5.5.5.5.4.5.6.6.5.4.7.7.7.7.7.7.7.8.8.8.8.8.8.8.8.8.8.9.9.9.9.9.9.0.0.a.a.a.a.b.b.b.b.b.c.c.d.d.d.e.e.e.e.f.g.$ h.i.j.k.3.3.3.3.3.3.3.3.3.3.3.l.H 3.. ",
"$ & m.4.+ + + + # # # # # + + + + + n.+ + + n.+ n.n.n.+ + + n.n.+ + + + + # # # # o.o.o.o.p.p.p.p.p.p.p.p.@ @ @ @ @ @ @ q.q.q.q.q.r.r.r.r.q.p.p.o.o.# o.G H 3.$ "};
